<svg width="24" height="24" viewBox="0 0 24 24" fill="none" xmlns="http://www.w3.org/2000/svg">
<path d="M12 24C9.62663 24 7.30655 23.2962 5.33316 21.9776C3.35977 20.6591 1.8217 18.7849 0.913451 16.5922C0.00519943 14.3995 -0.232441 11.9867 0.230582 9.65892C0.693605 7.33115 1.83649 5.19295 3.51472 3.51472C5.19295 1.83649 7.33115 0.693605 9.65892 0.230582C11.9867 -0.232441 14.3995 0.00519943 16.5922 0.913451C18.7849 1.8217 20.6591 3.35977 21.9776 5.33316C23.2962 7.30655 24 9.62663 24 12C23.9958 15.1813 22.7301 18.2311 20.4806 20.4806C18.2311 22.7301 15.1813 23.9958 12 24ZM22.12 13.642C20.0481 13.0395 17.8708 12.8902 15.736 13.204C16.6073 15.5787 17.2737 18.0236 17.728 20.512C18.8914 19.7278 19.882 18.7137 20.6387 17.5322C21.3954 16.3507 21.9022 15.0268 22.128 13.642H22.12ZM16 21.45C15.5174 18.7966 14.7841 16.1949 13.81 13.68L13.744 13.7C7.95401 15.715 5.88401 19.725 5.70401 20.1C7.14298 21.2244 8.8569 21.9429 10.6676 22.1807C12.4782 22.4184 14.3195 22.1668 16 21.452V21.45ZM4.38501 18.87C6.31626 15.7367 9.25382 13.3516 12.717 12.105C12.852 12.06 12.987 12.021 13.117 11.985C12.857 11.4 12.577 10.818 12.285 10.245C8.86144 11.2238 5.3167 11.7136 1.75601 11.7V12.012C1.75419 14.5445 2.69286 16.9874 4.39001 18.867L4.38501 18.87ZM1.96501 9.91501C5.1639 9.89893 8.34801 9.47962 11.442 8.66701C10.2826 6.62427 9.01409 4.64541 7.64201 2.73901C6.20657 3.41479 4.94713 4.4138 3.96238 5.65775C2.97763 6.9017 2.29432 8.3568 1.96601 9.90901L1.96501 9.91501ZM9.60001 2.05201C11.0029 3.96694 12.2796 5.97118 13.422 8.05201C15.533 7.36014 17.4001 6.07492 18.8 4.35001C17.5663 3.25214 16.085 2.46939 14.4828 2.06868C12.8807 1.66797 11.2053 1.66122 9.60001 2.04901V2.05201ZM19.935 5.53501C18.4094 7.35503 16.4369 8.74722 14.211 9.57501C14.451 10.065 14.681 10.56 14.891 11.061C14.971 11.241 15.041 11.421 15.111 11.591C17.4941 11.344 19.9008 11.4552 22.251 11.921C22.2362 9.59223 21.4205 7.33946 19.941 5.54101L19.935 5.53501Z" fill="white"/>
</svg>
