<svg width="144" height="35" viewBox="0 0 144 35" fill="none" xmlns="http://www.w3.org/2000/svg">
<path id="logo-path-text" d="M36.2549 31.5928C34.9326 31.5928 33.7459 31.319 32.6947 30.7713C31.6435 30.2235 30.8225 29.4642 30.2316 28.4932C29.6436 27.5075 29.3496 26.3967 29.3496 25.1607C29.3496 23.9247 29.6436 22.8215 30.2316 21.8512C30.8152 20.8865 31.6585 20.0987 32.6687 19.5747C33.7202 19.0269 34.9149 18.7531 36.2529 18.7531C37.5112 18.7531 38.6102 19.0035 39.55 19.5044C40.482 19.9815 41.2352 20.7378 41.7005 21.6635L39.4064 22.978C39.0405 22.4004 38.5787 21.9701 38.0207 21.6871C37.473 21.3881 36.8555 21.2343 36.2289 21.2409C35.1137 21.2409 34.1898 21.6008 33.4571 22.3205C32.7244 23.0248 32.3581 23.9714 32.3581 25.1602C32.3581 26.349 32.7166 27.3035 33.4336 28.0235C34.1663 28.7275 35.098 29.0795 36.2289 29.0795C36.8529 29.0872 37.4691 28.9427 38.0222 28.6588C38.5798 28.3617 39.0417 27.9237 39.4079 27.3448L41.7019 28.6588C41.2194 29.5863 40.461 30.3476 39.5274 30.8415C38.5893 31.3421 37.4984 31.5925 36.2549 31.5928ZM49.8317 31.5928C48.5417 31.5928 47.379 31.319 46.3435 30.7713C45.333 30.2469 44.4896 29.4586 43.9064 28.4932C43.3324 27.5075 43.0456 26.3967 43.046 25.1607C43.0463 23.9247 43.3331 22.8215 43.9064 21.8512C44.4897 20.8863 45.3331 20.0985 46.3435 19.5747C47.379 19.0269 48.5417 18.7531 49.8317 18.7531C51.1383 18.7531 52.309 19.0269 53.3438 19.5747C54.3786 20.1224 55.1838 20.8812 55.7594 21.8512C56.3474 22.8212 56.6414 23.9244 56.6414 25.1607C56.6414 26.397 56.3474 27.5079 55.7594 28.4932C55.1861 29.4629 54.3817 30.2218 53.3463 30.7698C52.3108 31.3179 51.1389 31.5922 49.8307 31.5928H49.8317ZM49.8317 29.0814C50.9305 29.0814 51.8384 28.7215 52.5554 28.0018C53.2724 27.2821 53.6308 26.3356 53.6304 25.1621C53.6304 23.9884 53.2721 23.0418 52.5554 22.3224C51.8388 21.603 50.9305 21.243 49.8307 21.2424C48.7318 21.2424 47.8239 21.6022 47.1069 22.322C46.4075 23.042 46.0578 23.9887 46.0578 25.1621C46.0578 26.3356 46.4083 27.2821 47.1093 28.0018C47.8254 28.7215 48.7325 29.0814 49.8307 29.0814H49.8317ZM71.9929 14.0137V31.4292H69.126V29.8091C68.637 30.3999 68.0042 30.8599 67.2861 31.1467C66.5691 31.4441 65.7727 31.5928 64.897 31.5928C63.6701 31.5928 62.5629 31.3268 61.5754 30.7948C60.6111 30.2695 59.8164 29.4887 59.2818 28.5414C58.7243 27.5557 58.4455 26.4292 58.4455 25.1621C58.4455 23.895 58.7243 22.7761 59.2818 21.8055C59.8164 20.8583 60.6111 20.0776 61.5754 19.5525C62.5632 19.0205 63.6704 18.7545 64.897 18.7545C65.7414 18.7545 66.5139 18.8954 67.2146 19.1771C67.9065 19.4526 68.521 19.8872 69.0064 20.4444V14.0137H71.9929ZM65.2552 29.0814C65.9722 29.0814 66.6173 28.925 67.1906 28.6121C67.7653 28.2821 68.2364 27.803 68.5522 27.2274C68.887 26.6325 69.0543 25.9441 69.054 25.1621C69.0536 24.3802 68.8864 23.6916 68.5522 23.0964C68.2402 22.5241 67.7676 22.0517 67.1906 21.7352C66.6173 21.4067 65.9722 21.2424 65.2552 21.2424C64.5382 21.2424 63.893 21.4067 63.3198 21.7352C62.7427 22.0517 62.2702 22.5241 61.9581 23.0964C61.6236 23.6913 61.4564 24.3799 61.4564 25.1621C61.4564 25.9444 61.6236 26.6328 61.9581 27.2274C62.274 27.803 62.7451 28.2821 63.3198 28.6121C63.893 28.925 64.5382 29.0814 65.2552 29.0814ZM87.8921 25.231C87.8921 25.4347 87.8758 25.7235 87.8431 26.0973H77.8353C78.0108 27.0204 78.4648 27.7559 79.1975 28.3036C79.9462 28.8353 80.8699 29.1013 81.9688 29.1016C83.3705 29.1016 84.5253 28.6479 85.4334 27.7405L87.0342 29.5521C86.4609 30.2259 85.7361 30.7345 84.8597 31.0778C83.9833 31.4212 82.9958 31.5933 81.8973 31.5943C80.4953 31.5943 79.2607 31.3204 78.1935 30.7727C77.1263 30.225 76.2981 29.4652 75.7088 28.4932C75.1356 27.5075 74.8489 26.3967 74.8489 25.1607C74.8489 23.9414 75.1276 22.8461 75.6848 21.8748C76.2402 20.9069 77.0595 20.1103 78.0504 19.5747C79.0539 19.0269 80.1848 18.7531 81.443 18.7531C82.6843 18.7531 83.7913 19.0269 84.7641 19.5747C85.7402 20.0952 86.5383 20.8871 87.0582 21.8512C87.6158 22.8222 87.8944 23.9492 87.8941 25.2324L87.8921 25.231ZM81.4411 21.1004C80.4856 21.1004 79.6732 21.382 79.0039 21.9451C78.3506 22.4928 77.9524 23.2283 77.8094 24.1514H85.0493C84.9216 23.2437 84.5312 22.5082 83.8782 21.9451C83.2253 21.382 82.4135 21.1009 81.443 21.1018L81.4411 21.1004ZM106.865 18.7531C108.473 18.7531 109.747 19.2146 110.687 20.1378C111.627 21.0455 112.097 22.4147 112.097 24.2452V31.4292H109.113V24.6221C109.113 23.5267 108.866 22.7052 108.372 22.1578C107.878 21.5947 107.169 21.313 106.246 21.3127C105.242 21.3127 104.438 21.6412 103.833 22.2984C103.227 22.9401 102.924 23.8634 102.925 25.0683V31.4292H99.9358V24.6221C99.9358 23.5267 99.689 22.7052 99.1954 22.1578C98.7015 21.5947 97.9927 21.313 97.0689 21.3127C96.0491 21.3127 95.2367 21.6335 94.6318 22.2753C94.0438 22.917 93.7498 23.8475 93.7498 25.0668V31.4292H90.7609V18.8955H93.6028V20.4916C94.086 19.9246 94.7023 19.4816 95.3986 19.2007C96.1153 18.9032 96.9118 18.7545 97.7882 18.7545C98.7437 18.7545 99.5879 18.9345 100.321 19.2945C101.055 19.6257 101.67 20.1652 102.089 20.8434C102.614 20.1866 103.291 19.6781 104.12 19.3181C104.947 18.9424 105.863 18.7545 106.867 18.7545L106.865 18.7531ZM121.767 31.5928C120.477 31.5928 119.314 31.319 118.279 30.7713C117.268 30.247 116.425 29.4593 115.841 28.4947C115.268 27.509 114.982 26.3981 114.982 25.1621C114.982 23.9261 115.268 22.8225 115.841 21.8512C116.425 20.8865 117.268 20.0987 118.279 19.5747C119.314 19.0269 120.477 18.7531 121.767 18.7531C123.073 18.7531 124.244 19.0269 125.279 19.5747C126.315 20.1224 127.119 20.8812 127.693 21.8512C128.28 22.8212 128.574 23.9244 128.574 25.1607C128.574 26.397 128.28 27.5079 127.693 28.4932C127.119 29.4629 126.315 30.2218 125.279 30.7698C124.244 31.3179 123.073 31.5922 121.767 31.5928ZM121.767 29.0814C122.866 29.0814 123.774 28.7215 124.491 28.0018C125.208 27.2821 125.567 26.3356 125.566 25.1621C125.566 23.9884 125.208 23.0418 124.491 22.3224C123.774 21.603 122.866 21.2432 121.767 21.2429C120.668 21.2429 119.76 21.6027 119.043 22.3224C118.342 23.0425 117.992 23.989 117.992 25.1621C117.992 26.3352 118.342 27.2818 119.043 28.0018C119.76 28.7215 120.668 29.0814 121.767 29.0814ZM138.671 18.7545C140.279 18.7545 141.57 19.2161 142.542 20.1392C143.514 21.0624 144 22.4315 143.999 24.2467V31.4292H141.015V24.6221C141.015 23.5267 140.753 22.7052 140.227 22.1578C139.701 21.5947 138.953 21.313 137.981 21.3127C136.882 21.3127 136.014 21.6412 135.377 22.2984C134.739 22.9401 134.421 23.8706 134.421 25.0899V31.4292H131.434V18.8955H134.276V20.5147C134.776 19.9316 135.416 19.48 136.138 19.2007C136.887 18.9032 137.732 18.7545 138.672 18.7545H138.671Z" fill="white"/>
<path d="M32.0416 0H37.0521L12.5562 35H7.54565L32.0416 0Z" fill="#FF00E6" id="logo-path-slash" />
<path d="M3.79733 28.7344C5.89453 28.7344 7.59465 27.0643 7.59465 25.0043C7.59465 22.9442 5.89453 21.2741 3.79733 21.2741C1.70012 21.2741 0 22.9442 0 25.0043C0 27.0643 1.70012 28.7344 3.79733 28.7344Z" fill="#FF00E6" id="logo-path-circle" />
</svg>
