<svg xmlns="http://www.w3.org/2000/svg" viewBox="0 0 2938.91 727.19"><defs><style>.cls-1{fill:#ff00e6;}.cls-2{fill:#fff;}</style></defs><g id="Warstwa_2" data-name="Warstwa 2"><g id="Warstwa_1-2" data-name="Warstwa 1"><path class="cls-1" d="M653.94,0H756.2L256.26,727.19H154Z"/><circle class="cls-1" cx="77.5" cy="519.51" r="77.5"/><path class="cls-2" d="M739.93,656.4q-40.48,0-72.66-17.07T617,592q-18-30.72-18-69.24T617,454a126.67,126.67,0,0,1,49.74-47.3q32.19-17.07,73.15-17.07,38.52,0,67.29,15.61a101,101,0,0,1,43.89,44.86l-46.82,27.31q-11.2-18-28.28-26.82a73.64,73.64,0,0,0-36.57-9.27q-34.14,0-56.57,22.43-22.43,21.95-22.43,59t21.95,59.49q22.43,21.94,57.05,21.94A76.94,76.94,0,0,0,776,595.44q17.07-9.26,28.28-27.3l46.82,27.3a106.61,106.61,0,0,1-44.38,45.35Q778,656.39,739.93,656.4Zm277.09,0q-39.49,0-71.19-17.07A126.61,126.61,0,0,1,896.09,592q-17.57-30.72-17.56-69.24T896.09,454a126.54,126.54,0,0,1,49.74-47.3q31.7-17.07,71.19-17.07,40,0,71.68,17.07T1138,454q18,30.23,18,68.76T1138,592q-17.55,30.22-49.25,47.3T1017,656.4Zm0-52.18q33.64,0,55.59-22.43t21.94-59q0-36.58-21.94-59T1017,441.35q-33.64,0-55.59,22.43Q940,486.22,940,522.79t21.46,59Q983.38,604.22,1017,604.22Zm452.29-313.06V653H1410.8V619.34a94.06,94.06,0,0,1-37.55,27.79q-21.95,9.27-48.76,9.27-37.56,0-67.79-16.58A120.13,120.13,0,0,1,1209.89,593q-17.07-30.72-17.07-70.21t17.07-69.74a120.1,120.1,0,0,1,46.81-46.81q30.24-16.58,67.79-16.58,25.85,0,47.3,8.78a95.19,95.19,0,0,1,36.57,26.33V291.16ZM1331.8,604.22q21.95,0,39.5-9.75a74,74,0,0,0,27.79-28.77q10.25-18.54,10.24-42.91t-10.24-42.92a70.53,70.53,0,0,0-27.79-28.28q-17.55-10.24-39.5-10.24t-39.5,10.24a70.53,70.53,0,0,0-27.79,28.28q-10.24,18.54-10.24,42.92t10.24,42.91a74,74,0,0,0,27.79,28.77Q1309.85,604.22,1331.8,604.22Zm462-80q0,6.35-1,18H1588.55q5.37,28.77,27.8,45.84,22.92,16.57,56.56,16.58,42.91,0,70.71-28.28L1776.29,614q-17.55,21-44.38,31.7t-60.46,10.73q-42.92,0-75.59-17.07T1545.15,592q-17.55-30.72-17.55-69.24,0-38,17.06-68.27a124.1,124.1,0,0,1,48.28-47.79q30.72-17.07,69.24-17.07,38,0,67.78,17.07a115.15,115.15,0,0,1,46.82,47.3Q1793.85,484.26,1793.84,524.25Zm-131.66-85.82q-29.25,0-49.74,17.55-20,17.07-24.38,45.84h147.76q-3.91-28.29-23.9-45.84T1662.18,438.43Zm518.88-48.77q49.24,0,78,28.77,28.77,28.29,28.77,85.34V653H2226.9V511.57q0-34.14-15.12-51.2-15.12-17.55-43.4-17.56-30.72,0-49.25,20.48-18.54,20-18.53,57.55V653h-61V511.57q0-34.14-15.11-51.2-15.12-17.55-43.4-17.56-31.22,0-49.74,20-18,20-18,58V653h-61V392.59h58v33.16A94.75,94.75,0,0,1,1947,398.93q21.94-9.27,48.77-9.27,29.25,0,51.69,11.22a82.44,82.44,0,0,1,36.08,32.18q16.09-20.47,41.45-31.69Q2150.33,389.66,2181.06,389.66ZM2485.15,656.4q-39.49,0-71.19-17.07a126.74,126.74,0,0,1-49.74-47.3q-17.55-30.72-17.55-69.24T2364.22,454a126.67,126.67,0,0,1,49.74-47.3q31.7-17.07,71.19-17.07,40,0,71.69,17.07t49.25,47.3q18,30.23,18,68.76t-18,69.24q-17.55,30.22-49.25,47.3T2485.15,656.4Zm0-52.18q33.64,0,55.6-22.43t21.94-59q0-36.58-21.94-59t-55.6-22.43q-33.65,0-55.59,22.43-21.45,22.44-21.45,59t21.45,59Q2451.51,604.22,2485.15,604.22Zm345-214.56q49.24,0,79,28.77t29.74,85.34V653H2878V511.57q0-34.14-16.09-51.2-16.1-17.55-45.84-17.56-33.65,0-53.15,20.48-19.52,20-19.51,58V653h-60.95V392.59h58v33.64a95.35,95.35,0,0,1,38-27.3Q2801.39,389.66,2830.17,389.66Z"/></g></g></svg>