<svg width="231" height="56" viewBox="0 0 231 56" fill="none" xmlns="http://www.w3.org/2000/svg">
<path d="M58.0076 50.5486C55.892 50.5486 53.9932 50.1104 52.3114 49.234C50.6295 48.3577 49.3158 47.1427 48.3704 45.5892C47.4296 44.012 46.9592 42.2347 46.9592 40.2571C46.9592 38.2795 47.4296 36.5145 48.3704 34.962C49.3041 33.4184 50.6535 32.158 52.2698 31.3195C53.9522 30.4431 55.8638 30.0049 58.0045 30.0049C60.0177 30.0049 61.7761 30.4056 63.2798 31.207C64.7711 31.9704 65.9762 33.1804 66.7206 34.6616L63.0501 36.7648C62.4647 35.8407 61.7257 35.1522 60.833 34.6994C59.9567 34.2209 58.9686 33.9749 57.9661 33.9855C56.1818 33.9855 54.7035 34.5613 53.5312 35.7128C52.3589 36.8397 51.7728 38.3542 51.7728 40.2563C51.7728 42.1584 52.3464 43.6855 53.4936 44.8376C54.6659 45.964 56.1567 46.5272 57.9661 46.5272C58.9645 46.5395 59.9504 46.3083 60.8354 45.8541C61.7275 45.3787 62.4666 44.6779 63.0524 43.7518L66.723 45.8541C65.9509 47.3381 64.7374 48.5562 63.2437 49.3464C61.7427 50.1473 59.9973 50.548 58.0076 50.5486ZM79.7305 50.5486C77.6666 50.5486 75.8062 50.1104 74.1495 49.234C72.5327 48.3951 71.1833 47.1337 70.25 45.5892C69.3317 44.012 68.8729 42.2347 68.8734 40.2571C68.8739 38.2795 69.3328 36.5145 70.25 34.962C71.1834 33.4181 72.5328 32.1575 74.1495 31.3195C75.8062 30.4431 77.6666 30.0049 79.7305 30.0049C81.8211 30.0049 83.6942 30.4431 85.3499 31.3195C87.0057 32.1958 88.294 33.41 89.2149 34.962C90.1557 36.514 90.626 38.279 90.626 40.2571C90.626 42.2352 90.1557 44.0126 89.2149 45.5892C88.2977 47.1407 87.0106 48.3548 85.3539 49.2317C83.6971 50.1086 81.8221 50.5475 79.7289 50.5486H79.7305ZM79.7305 46.5302C81.4887 46.5302 82.9414 45.9545 84.0886 44.8029C85.2358 43.6514 85.8091 42.1369 85.8086 40.2594C85.8086 38.3814 85.2352 36.8669 84.0886 35.7159C82.9419 34.5649 81.4887 33.9888 79.7289 33.9878C77.9708 33.9878 76.5181 34.5636 75.3709 35.7151C74.2519 36.8672 73.6924 38.3819 73.6924 40.2594C73.6924 42.1369 74.2532 43.6514 75.3748 44.8029C76.5204 45.9545 77.9718 46.5302 79.7289 46.5302H79.7305ZM115.188 22.4219V50.2867H110.601V47.6946C109.819 48.6398 108.807 49.3758 107.658 49.8347C106.51 50.3106 105.236 50.5486 103.835 50.5486C101.872 50.5486 100.1 50.123 98.5205 49.2717C96.9776 48.4313 95.7061 47.182 94.8508 45.6662C93.9587 44.0891 93.5126 42.2868 93.5126 40.2594C93.5126 38.232 93.9587 36.4418 94.8508 34.8888C95.7061 33.3733 96.9777 32.1242 98.5205 31.284C100.101 30.4328 101.873 30.0072 103.835 30.0072C105.186 30.0072 106.422 30.2326 107.543 30.6834C108.65 31.1241 109.633 31.8195 110.41 32.711V22.4219H115.188ZM104.408 46.5302C105.555 46.5302 106.588 46.28 107.505 45.7794C108.424 45.2513 109.178 44.4848 109.683 43.5639C110.219 42.612 110.487 41.5105 110.486 40.2594C110.486 39.0083 110.218 37.9065 109.683 36.9542C109.184 36.0386 108.428 35.2828 107.505 34.7764C106.588 34.2507 105.555 33.9878 104.408 33.9878C103.261 33.9878 102.229 34.2507 101.311 34.7764C100.388 35.2828 99.6321 36.0386 99.1328 36.9542C98.5976 37.906 98.33 39.0078 98.33 40.2594C98.33 41.5111 98.5976 42.6125 99.1328 43.5639C99.6382 44.4848 100.392 45.2513 101.311 45.7794C102.229 46.28 103.261 46.5302 104.408 46.5302ZM140.627 40.3695C140.627 40.6955 140.601 41.1576 140.549 41.7557H124.536C124.817 43.2327 125.544 44.4094 126.716 45.2858C127.914 46.1365 129.392 46.5621 131.15 46.5626C133.393 46.5626 135.24 45.8366 136.693 44.3848L139.255 47.2834C138.337 48.3615 137.178 49.1752 135.775 49.7246C134.373 50.2739 132.793 50.5493 131.035 50.5509C128.792 50.5509 126.817 50.1127 125.109 49.2363C123.402 48.36 122.077 47.1443 121.134 45.5892C120.217 44.012 119.758 42.2347 119.758 40.2571C119.758 38.3062 120.204 36.5538 121.096 34.9997C121.984 33.451 123.295 32.1765 124.881 31.3195C126.486 30.4431 128.296 30.0049 130.309 30.0049C132.295 30.0049 134.066 30.4431 135.622 31.3195C137.184 32.1523 138.461 33.4194 139.293 34.962C140.185 36.5155 140.631 38.3188 140.63 40.3718L140.627 40.3695ZM130.306 33.7606C128.777 33.7606 127.477 34.2111 126.406 35.1121C125.361 35.9885 124.724 37.1652 124.495 38.6422H136.079C135.874 37.1898 135.25 36.0132 134.205 35.1121C133.16 34.2111 131.861 33.7614 130.309 33.763L130.306 33.7606ZM170.984 30.0049C173.557 30.0049 175.596 30.7434 177.099 32.2205C178.602 33.6729 179.354 35.8635 179.354 38.7924V50.2867H174.581V39.3954C174.581 37.6427 174.186 36.3284 173.395 35.4525C172.605 34.5515 171.471 34.1008 169.993 34.1003C168.387 34.1003 167.1 34.626 166.132 35.6774C165.163 36.7042 164.679 38.1815 164.679 40.1092V50.2867H159.897V39.3954C159.897 37.6427 159.502 36.3284 158.713 35.4525C157.922 34.5515 156.788 34.1008 155.31 34.1003C153.678 34.1003 152.379 34.6136 151.411 35.6404C150.47 36.6672 150 38.156 150 40.1069V50.2867H145.217V30.2329H149.764V32.7865C150.537 31.8794 151.524 31.1706 152.638 30.7211C153.784 30.2452 155.059 30.0072 156.461 30.0072C157.99 30.0072 159.34 30.2953 160.513 30.8713C161.687 31.4011 162.672 32.2643 163.342 33.3494C164.183 32.2985 165.266 31.485 166.591 30.909C167.916 30.3078 169.381 30.0072 170.987 30.0072L170.984 30.0049ZM194.827 50.5486C192.763 50.5486 190.902 50.1104 189.246 49.234C187.629 48.3953 186.28 47.1349 185.346 45.5915C184.429 44.0144 183.97 42.237 183.97 40.2594C183.97 38.2818 184.429 36.516 185.346 34.962C186.28 33.4184 187.629 32.158 189.246 31.3195C190.902 30.4431 192.763 30.0049 194.827 30.0049C196.917 30.0049 198.791 30.4431 200.447 31.3195C202.103 32.1958 203.39 33.41 204.308 34.962C205.249 36.514 205.719 38.279 205.719 40.2571C205.719 42.2352 205.249 44.0126 204.308 45.5892C203.391 47.1407 202.104 48.3548 200.447 49.2317C198.79 50.1086 196.917 50.5475 194.827 50.5486ZM194.827 46.5302C196.585 46.5302 198.038 45.9545 199.185 44.8029C200.333 43.6514 200.907 42.1369 200.905 40.2594C200.905 38.3814 200.332 36.8669 199.185 35.7159C198.039 34.5649 196.586 33.9891 194.827 33.9886C193.068 33.9886 191.615 34.5644 190.469 35.7159C189.347 36.8679 188.787 38.3825 188.787 40.2594C188.787 42.1364 189.347 43.6509 190.469 44.8029C191.616 45.9545 193.068 46.5302 194.827 46.5302ZM221.873 30.0072C224.447 30.0072 226.511 30.7458 228.067 32.2228C229.622 33.6998 230.399 35.8904 230.398 38.7947V50.2867H225.625V39.3954C225.625 37.6427 225.204 36.3284 224.363 35.4525C223.522 34.5515 222.324 34.1008 220.77 34.1003C219.011 34.1003 217.622 34.626 216.603 35.6774C215.583 36.7042 215.073 38.193 215.073 40.1439V50.2867H210.295V30.2329H214.842V32.8234C215.642 31.8905 216.666 31.168 217.821 30.7211C219.019 30.2452 220.371 30.0072 221.875 30.0072H221.873Z" fill="white"/>
<path d="M51.2665 0H59.2833L20.0898 56H12.073L51.2665 0Z" fill="white"/>
<path d="M6.07572 45.975C9.43125 45.975 12.1514 43.3029 12.1514 40.0068C12.1514 36.7107 9.43125 34.0386 6.07572 34.0386C2.72019 34.0386 0 36.7107 0 40.0068C0 43.3029 2.72019 45.975 6.07572 45.975Z" fill="white"/>
</svg>
