<svg width="155" height="28" viewBox="0 0 155 28" fill="none" xmlns="http://www.w3.org/2000/svg">
<path d="M23.8334 0.591309H27.3547L9.12189 27.9999H5.60059L23.8334 0.591309Z" fill="#FF00E6" id="logo-path-slash" />
<path d="M2.6687 22.5964C4.14258 22.5964 5.3374 21.4228 5.3374 19.975C5.3374 18.5272 4.14258 17.3535 2.6687 17.3535C1.19482 17.3535 0 18.5272 0 19.975C0 21.4228 1.19482 22.5964 2.6687 22.5964Z" fill="#FF00E6" id="logo-path-circle" />
<g id="logo-path-text">
<path d="M22.7637 12.6736H24.872V25.1888H22.7637V12.6736Z" fill="white"/>
<path d="M36.3594 16.1819V25.1888H34.3522V24.0418C34.0149 24.4466 33.5932 24.7615 33.0872 24.9864C32.5812 25.2 32.0358 25.3068 31.4511 25.3068C30.248 25.3068 29.2978 24.9751 28.6006 24.3117C27.9147 23.637 27.5718 22.6419 27.5718 21.3263V16.1819H29.6801V21.0395C29.6801 21.8491 29.86 22.4563 30.2199 22.8611C30.5909 23.2547 31.1138 23.4515 31.7885 23.4515C32.5419 23.4515 33.1378 23.221 33.5764 22.7599C34.0261 22.2877 34.251 21.613 34.251 20.7359V16.1819H36.3594Z" fill="white"/>
<path d="M42.7968 21.3263L41.2282 22.8105V25.1888H39.1199V12.6736H41.2282V20.2299L45.5967 16.1819H48.1267L44.3654 19.96L48.4809 25.1888H45.9172L42.7968 21.3263Z" fill="white"/>
<path d="M53.1189 16.0807C54.4458 16.0807 55.4578 16.4011 56.1549 17.0421C56.8634 17.6718 57.2176 18.6276 57.2176 19.9094V25.1888H55.2273V24.0924C54.9686 24.486 54.5976 24.7896 54.1141 25.0032C53.6418 25.2056 53.0683 25.3068 52.3936 25.3068C51.719 25.3068 51.1286 25.1944 50.6226 24.9695C50.1166 24.7334 49.7231 24.4129 49.442 24.0081C49.1721 23.592 49.0372 23.1254 49.0372 22.6081C49.0372 21.7985 49.3351 21.152 49.9311 20.6685C50.5383 20.1737 51.4885 19.9263 52.7816 19.9263H55.1092V19.7914C55.1092 19.1617 54.918 18.6782 54.5357 18.3408C54.1647 18.0035 53.6081 17.8348 52.8659 17.8348C52.3599 17.8348 51.8595 17.9135 51.3648 18.071C50.8813 18.2284 50.4708 18.4477 50.1335 18.7288L49.307 17.1939C49.7793 16.8341 50.3471 16.5586 51.0106 16.3674C51.674 16.1763 52.3768 16.0807 53.1189 16.0807ZM52.8322 23.7719C53.3607 23.7719 53.8273 23.6539 54.2321 23.4177C54.6482 23.1704 54.9405 22.8218 55.1092 22.372V21.3263H52.9334C51.719 21.3263 51.1118 21.7254 51.1118 22.5238C51.1118 22.9061 51.2636 23.2097 51.5672 23.4346C51.8708 23.6595 52.2924 23.7719 52.8322 23.7719Z" fill="white"/>
<path d="M62.7064 25.3068C61.9755 25.3068 61.2615 25.2112 60.5643 25.0201C59.8671 24.8289 59.3105 24.5872 58.8945 24.2948L59.7041 22.6925C60.1089 22.9623 60.5924 23.1816 61.1546 23.3503C61.7281 23.5077 62.2903 23.5864 62.8413 23.5864C64.1007 23.5864 64.7304 23.2547 64.7304 22.5913C64.7304 22.2764 64.5674 22.0572 64.2413 21.9335C63.9264 21.8098 63.4148 21.6917 62.7064 21.5793C61.9642 21.4668 61.357 21.3375 60.8848 21.1913C60.4237 21.0451 60.0189 20.7921 59.6704 20.4323C59.333 20.0612 59.1644 19.5496 59.1644 18.8974C59.1644 18.0429 59.5186 17.3626 60.227 16.8566C60.9466 16.3393 61.9136 16.0807 63.1281 16.0807C63.7465 16.0807 64.365 16.1538 64.9834 16.2999C65.6019 16.4349 66.1079 16.6204 66.5014 16.8566L65.6918 18.4589C64.9272 18.0091 64.067 17.7842 63.1112 17.7842C62.4927 17.7842 62.0205 17.8798 61.6944 18.071C61.3795 18.2509 61.2221 18.4926 61.2221 18.7962C61.2221 19.1336 61.3908 19.3753 61.7281 19.5215C62.0767 19.6564 62.6108 19.7858 63.3305 19.9094C64.0501 20.0219 64.6404 20.1512 65.1015 20.2974C65.5625 20.4436 65.9561 20.6909 66.2822 21.0395C66.6195 21.3881 66.7882 21.8829 66.7882 22.5238C66.7882 23.3671 66.4227 24.0418 65.6918 24.5478C64.9609 25.0538 63.9658 25.3068 62.7064 25.3068Z" fill="white"/>
<path d="M75.6373 23.5021V25.1888H67.8617V23.8563L72.8037 17.8686H67.9629V16.1819H75.5024V17.5144L70.5435 23.5021H75.6373Z" fill="white"/>
<path d="M78.3378 25.3068C77.9555 25.3068 77.6294 25.1775 77.3596 24.9189C77.0897 24.649 76.9548 24.3117 76.9548 23.9069C76.9548 23.4908 77.0841 23.1535 77.3427 22.8949C77.6126 22.6362 77.9443 22.5069 78.3378 22.5069C78.7314 22.5069 79.0575 22.6362 79.3161 22.8949C79.586 23.1535 79.7209 23.4908 79.7209 23.9069C79.7209 24.3117 79.586 24.649 79.3161 24.9189C79.0462 25.1775 78.7201 25.3068 78.3378 25.3068Z" fill="white"/>
<path d="M85.458 21.3263L83.8894 22.8105V25.1888H81.781V12.6736H83.8894V20.2299L88.2579 16.1819H90.7879L87.0266 19.96L91.1421 25.1888H88.5784L85.458 21.3263Z" fill="white"/>
<path d="M95.7801 16.0807C97.107 16.0807 98.119 16.4011 98.8161 17.0421C99.5245 17.6718 99.8787 18.6276 99.8787 19.9094V25.1888H97.8884V24.0924C97.6298 24.486 97.2588 24.7896 96.7752 25.0032C96.303 25.2056 95.7295 25.3068 95.0548 25.3068C94.3801 25.3068 93.7898 25.1944 93.2838 24.9695C92.7778 24.7334 92.3842 24.4129 92.1031 24.0081C91.8333 23.592 91.6983 23.1254 91.6983 22.6081C91.6983 21.7985 91.9963 21.152 92.5923 20.6685C93.1995 20.1737 94.1496 19.9263 95.4428 19.9263H97.7704V19.7914C97.7704 19.1617 97.5792 18.6782 97.1969 18.3408C96.8258 18.0035 96.2692 17.8348 95.5271 17.8348C95.0211 17.8348 94.5207 17.9135 94.0259 18.071C93.5424 18.2284 93.132 18.4477 92.7947 18.7288L91.9682 17.1939C92.4405 16.8341 93.0083 16.5586 93.6717 16.3674C94.3352 16.1763 95.038 16.0807 95.7801 16.0807ZM95.4934 23.7719C96.0219 23.7719 96.4885 23.6539 96.8933 23.4177C97.3094 23.1704 97.6017 22.8218 97.7704 22.372V21.3263H95.5946C94.3802 21.3263 93.7729 21.7254 93.7729 22.5238C93.7729 22.9061 93.9247 23.2097 94.2283 23.4346C94.532 23.6595 94.9536 23.7719 95.4934 23.7719Z" fill="white"/>
<path d="M102.585 12.6736H104.693V25.1888H102.585V12.6736Z" fill="white"/>
<path d="M115.927 20.7359C115.927 20.8821 115.916 21.0901 115.894 21.36H108.826C108.95 22.0234 109.27 22.5519 109.788 22.9455C110.316 23.3278 110.968 23.5189 111.744 23.5189C112.734 23.5189 113.549 23.1929 114.19 22.5407L115.32 23.8394C114.915 24.3229 114.404 24.6884 113.785 24.9358C113.167 25.1831 112.47 25.3068 111.694 25.3068C110.704 25.3068 109.833 25.11 109.079 24.7165C108.326 24.3229 107.741 23.7776 107.325 23.0804C106.92 22.372 106.718 21.5736 106.718 20.6853C106.718 19.8082 106.915 19.0211 107.308 18.324C107.713 17.6156 108.27 17.0646 108.978 16.671C109.687 16.2775 110.485 16.0807 111.373 16.0807C112.25 16.0807 113.032 16.2775 113.718 16.671C114.415 17.0533 114.955 17.5987 115.337 18.3071C115.73 19.0043 115.927 19.8139 115.927 20.7359ZM111.373 17.7674C110.699 17.7674 110.125 17.9698 109.653 18.3746C109.192 18.7681 108.911 19.2966 108.809 19.96H113.92C113.83 19.3079 113.555 18.7794 113.094 18.3746C112.633 17.9698 112.059 17.7674 111.373 17.7674Z" fill="white"/>
<path d="M129.321 16.0807C130.456 16.0807 131.356 16.4124 132.019 17.0758C132.683 17.728 133.015 18.7119 133.015 20.0275V25.1888H130.906V20.2974C130.906 19.5103 130.732 18.9199 130.383 18.5264C130.035 18.1216 129.534 17.9192 128.882 17.9192C128.174 17.9192 127.606 18.1553 127.179 18.6276C126.751 19.0886 126.538 19.752 126.538 20.6179V25.1888H124.429V20.2974C124.429 19.5103 124.255 18.9199 123.906 18.5264C123.558 18.1216 123.057 17.9192 122.405 17.9192C121.686 17.9192 121.112 18.1497 120.685 18.6107C120.269 19.0717 120.061 19.7408 120.061 20.6179V25.1888H117.952V16.1819H119.96V17.3288C120.297 16.924 120.719 16.6148 121.225 16.4011C121.731 16.1875 122.293 16.0807 122.911 16.0807C123.586 16.0807 124.182 16.21 124.699 16.4686C125.228 16.716 125.644 17.0871 125.947 17.5818C126.318 17.1096 126.796 16.7441 127.381 16.4855C127.966 16.2156 128.612 16.0807 129.321 16.0807Z" fill="white"/>
<path d="M140.701 16.0807C141.578 16.0807 142.36 16.2718 143.046 16.6542C143.743 17.0365 144.288 17.5762 144.682 18.2734C145.075 18.9705 145.272 19.7745 145.272 20.6853C145.272 21.5961 145.075 22.4057 144.682 23.1141C144.288 23.8113 143.743 24.351 143.046 24.7334C142.36 25.1157 141.578 25.3068 140.701 25.3068C140.083 25.3068 139.515 25.2 138.998 24.9864C138.492 24.7727 138.064 24.4522 137.716 24.0249V25.1888H135.709V12.6736H137.817V17.2782C138.177 16.8847 138.599 16.5867 139.082 16.3843C139.577 16.1819 140.117 16.0807 140.701 16.0807ZM140.465 23.5021C141.241 23.5021 141.876 23.2435 142.371 22.7262C142.877 22.209 143.13 21.5287 143.13 20.6853C143.13 19.842 142.877 19.1617 142.371 18.6444C141.876 18.1272 141.241 17.8686 140.465 17.8686C139.959 17.8686 139.504 17.9866 139.099 18.2228C138.694 18.4477 138.374 18.7737 138.138 19.201C137.901 19.6283 137.783 20.1231 137.783 20.6853C137.783 21.2475 137.901 21.7423 138.138 22.1696C138.374 22.5969 138.694 22.9286 139.099 23.1647C139.504 23.3896 139.959 23.5021 140.465 23.5021Z" fill="white"/>
<path d="M150.597 16.0807C151.924 16.0807 152.936 16.4011 153.633 17.0421C154.342 17.6718 154.696 18.6276 154.696 19.9094V25.1888H152.706V24.0924C152.447 24.486 152.076 24.7896 151.592 25.0032C151.12 25.2056 150.547 25.3068 149.872 25.3068C149.197 25.3068 148.607 25.1944 148.101 24.9695C147.595 24.7334 147.201 24.4129 146.92 24.0081C146.65 23.592 146.515 23.1254 146.515 22.6081C146.515 21.7985 146.813 21.152 147.409 20.6685C148.017 20.1737 148.967 19.9263 150.26 19.9263H152.588V19.7914C152.588 19.1617 152.396 18.6782 152.014 18.3408C151.643 18.0035 151.086 17.8348 150.344 17.8348C149.838 17.8348 149.338 17.9135 148.843 18.071C148.36 18.2284 147.949 18.4477 147.612 18.7288L146.785 17.1939C147.258 16.8341 147.825 16.5586 148.489 16.3674C149.152 16.1763 149.855 16.0807 150.597 16.0807ZM150.31 23.7719C150.839 23.7719 151.306 23.6539 151.71 23.4177C152.126 23.1704 152.419 22.8218 152.588 22.372V21.3263H150.412C149.197 21.3263 148.59 21.7254 148.59 22.5238C148.59 22.9061 148.742 23.2097 149.045 23.4346C149.349 23.6595 149.771 23.7719 150.31 23.7719Z" fill="white"/>
</g>
</svg>
