<svg width="146" height="24" viewBox="0 0 146 24" fill="none" xmlns="http://www.w3.org/2000/svg">
<path d="M21.7972 0H24.5L7.70279 24H5L21.7972 0Z" fill="white"/>
<path d="M21.2017 9.03906H23.2596V21.3901H21.2017V9.03906Z" fill="white"/>
<path d="M34.472 12.5013V21.3901H32.5129V20.2582C32.1836 20.6577 31.7721 20.9684 31.2782 21.1903C30.7843 21.4012 30.252 21.5066 29.6812 21.5066C28.5069 21.5066 27.5794 21.1792 26.899 20.5245C26.2294 19.8587 25.8947 18.8766 25.8947 17.5782V12.5013H27.9526V17.2953C27.9526 18.0943 28.1282 18.6935 28.4794 19.093C28.8416 19.4814 29.352 19.6756 30.0105 19.6756C30.7459 19.6756 31.3275 19.4481 31.7556 18.9931C32.1946 18.527 32.4141 17.8612 32.4141 16.9956V12.5013H34.472Z" fill="white"/>
<path d="M40.7554 17.5782L39.2243 19.043V21.3901H37.1665V9.03906H39.2243V16.4963L43.4883 12.5013H45.9578L42.2865 16.2299L46.3035 21.3901H43.8011L40.7554 17.5782Z" fill="white"/>
<path d="M50.8305 12.4015C52.1256 12.4015 53.1134 12.7177 53.7939 13.3503C54.4853 13.9717 54.8311 14.9149 54.8311 16.18V21.3901H52.8884V20.3081C52.636 20.6965 52.2738 20.9961 51.8018 21.207C51.3409 21.4067 50.7811 21.5066 50.1226 21.5066C49.4641 21.5066 48.8879 21.3956 48.394 21.1737C47.9001 20.9406 47.5159 20.6244 47.2415 20.2249C46.9781 19.8143 46.8464 19.3538 46.8464 18.8433C46.8464 18.0443 47.1373 17.4062 47.719 16.9291C48.3116 16.4408 49.2391 16.1967 50.5012 16.1967H52.7732V16.0635C52.7732 15.4421 52.5866 14.9649 52.2134 14.632C51.8512 14.2991 51.3079 14.1326 50.5836 14.1326C50.0897 14.1326 49.6013 14.2103 49.1183 14.3656C48.6464 14.521 48.2458 14.7374 47.9165 15.0148L47.1098 13.5001C47.5708 13.145 48.1251 12.8731 48.7726 12.6844C49.4202 12.4958 50.1061 12.4015 50.8305 12.4015ZM50.5506 19.9918C51.0665 19.9918 51.522 19.8753 51.9171 19.6423C52.3232 19.3982 52.6085 19.0541 52.7732 18.6103V17.5782H50.6494C49.4641 17.5782 48.8714 17.9722 48.8714 18.7601C48.8714 19.1374 49.0196 19.437 49.3159 19.6589C49.6122 19.8809 50.0238 19.9918 50.5506 19.9918Z" fill="white"/>
<path d="M60.1885 21.5066C59.4751 21.5066 58.7782 21.4123 58.0977 21.2236C57.4172 21.035 56.874 20.7964 56.4679 20.5079L57.2581 18.9265C57.6532 19.1929 58.1252 19.4093 58.6739 19.5757C59.2337 19.7311 59.7825 19.8087 60.3203 19.8087C61.5495 19.8087 62.1641 19.4814 62.1641 18.8267C62.1641 18.5159 62.005 18.2995 61.6867 18.1775C61.3794 18.0554 60.88 17.9389 60.1885 17.8279C59.4642 17.717 58.8715 17.5893 58.4105 17.4451C57.9605 17.3008 57.5654 17.0511 57.2252 16.696C56.8959 16.3298 56.7313 15.8249 56.7313 15.1813C56.7313 14.3379 57.077 13.6665 57.7685 13.1672C58.4709 12.6567 59.4148 12.4015 60.6001 12.4015C61.2038 12.4015 61.8074 12.4736 62.4111 12.6179C63.0147 12.751 63.5086 12.9341 63.8928 13.1672L63.1025 14.7485C62.3562 14.3046 61.5166 14.0827 60.5837 14.0827C59.98 14.0827 59.519 14.177 59.2008 14.3656C58.8934 14.5432 58.7398 14.7818 58.7398 15.0814C58.7398 15.4143 58.9044 15.6529 59.2337 15.7972C59.5739 15.9303 60.0953 16.0579 60.7977 16.18C61.5001 16.291 62.0763 16.4186 62.5263 16.5629C62.9763 16.7071 63.3605 16.9513 63.6787 17.2953C64.008 17.6393 64.1726 18.1275 64.1726 18.7601C64.1726 19.5924 63.8159 20.2582 63.1025 20.7575C62.3891 21.2569 61.4178 21.5066 60.1885 21.5066Z" fill="white"/>
<path d="M72.81 19.7255V21.3901H65.2205V20.0751L70.0442 14.1659H65.3193V12.5013H72.6783V13.8163L67.8381 19.7255H72.81Z" fill="white"/>
<path d="M78.296 17.5782L76.7649 19.043V21.3901H74.707V9.03906H76.7649V16.4963L81.0289 12.5013H83.4984L79.8271 16.2299L83.8441 21.3901H81.3417L78.296 17.5782Z" fill="white"/>
<path d="M88.3711 12.4015C89.6662 12.4015 90.654 12.7177 91.3345 13.3503C92.0259 13.9717 92.3716 14.9149 92.3716 16.18V21.3901H90.429V20.3081C90.1765 20.6965 89.8144 20.9961 89.3424 21.207C88.8814 21.4067 88.3217 21.5066 87.6632 21.5066C87.0046 21.5066 86.4284 21.3956 85.9345 21.1737C85.4406 20.9406 85.0565 20.6244 84.7821 20.2249C84.5187 19.8143 84.387 19.3538 84.387 18.8433C84.387 18.0443 84.6778 17.4062 85.2595 16.9291C85.8522 16.4408 86.7796 16.1967 88.0418 16.1967H90.3137V16.0635C90.3137 15.4421 90.1272 14.9649 89.754 14.632C89.3918 14.2991 88.8485 14.1326 88.1241 14.1326C87.6302 14.1326 87.1418 14.2103 86.6589 14.3656C86.187 14.521 85.7864 14.7374 85.4571 15.0148L84.6504 13.5001C85.1114 13.145 85.6656 12.8731 86.3132 12.6844C86.9607 12.4958 87.6467 12.4015 88.3711 12.4015ZM88.0912 19.9918C88.607 19.9918 89.0625 19.8753 89.4577 19.6423C89.8637 19.3982 90.1491 19.0541 90.3137 18.6103V17.5782H88.19C87.0046 17.5782 86.412 17.9722 86.412 18.7601C86.412 19.1374 86.5601 19.437 86.8565 19.6589C87.1528 19.8809 87.5644 19.9918 88.0912 19.9918Z" fill="white"/>
<path d="M95.0127 9.03906H97.0706V21.3901H95.0127V9.03906Z" fill="white"/>
<path d="M108.036 16.9956C108.036 17.1399 108.025 17.3452 108.003 17.6115H101.105C101.226 18.2663 101.539 18.7878 102.043 19.1762C102.559 19.5535 103.196 19.7422 103.953 19.7422C104.919 19.7422 105.715 19.4203 106.34 18.7767L107.443 20.0584C107.048 20.5356 106.549 20.8963 105.945 21.1404C105.342 21.3845 104.661 21.5066 103.904 21.5066C102.938 21.5066 102.087 21.3124 101.352 20.924C100.617 20.5356 100.046 19.9974 99.6399 19.3094C99.2448 18.6103 99.0472 17.8224 99.0472 16.9457C99.0472 16.0801 99.2393 15.3033 99.6234 14.6153C100.019 13.9162 100.562 13.3725 101.253 12.9841C101.945 12.5957 102.724 12.4015 103.591 12.4015C104.447 12.4015 105.21 12.5957 105.879 12.9841C106.56 13.3614 107.087 13.8996 107.46 14.5987C107.844 15.2867 108.036 16.0857 108.036 16.9956ZM103.591 14.066C102.933 14.066 102.373 14.2658 101.912 14.6653C101.462 15.0537 101.187 15.5752 101.089 16.2299H106.077C105.989 15.5863 105.72 15.0648 105.27 14.6653C104.82 14.2658 104.261 14.066 103.591 14.066Z" fill="white"/>
<path d="M121.109 12.4015C122.218 12.4015 123.096 12.7288 123.743 13.3836C124.391 14.0272 124.714 14.9982 124.714 16.2965V21.3901H122.657V16.5629C122.657 15.7861 122.486 15.2035 122.146 14.8151C121.806 14.4156 121.318 14.2158 120.681 14.2158C119.99 14.2158 119.435 14.4489 119.018 14.9149C118.601 15.3699 118.393 16.0247 118.393 16.8791V21.3901H116.335V16.5629C116.335 15.7861 116.165 15.2035 115.824 14.8151C115.484 14.4156 114.996 14.2158 114.359 14.2158C113.657 14.2158 113.097 14.4433 112.68 14.8983C112.274 15.3533 112.071 16.0136 112.071 16.8791V21.3901H110.013V12.5013H111.972V13.6332C112.301 13.2337 112.713 12.9286 113.207 12.7177C113.701 12.5069 114.249 12.4015 114.853 12.4015C115.512 12.4015 116.093 12.5291 116.598 12.7843C117.114 13.0285 117.52 13.3947 117.816 13.8829C118.179 13.4168 118.645 13.0562 119.216 12.801C119.786 12.5346 120.418 12.4015 121.109 12.4015Z" fill="white"/>
<path d="M132.217 12.4015C133.073 12.4015 133.836 12.5901 134.506 12.9674C135.186 13.3447 135.718 13.8774 136.103 14.5654C136.487 15.2534 136.679 16.0468 136.679 16.9457C136.679 17.8446 136.487 18.6436 136.103 19.3427C135.718 20.0307 135.186 20.5633 134.506 20.9406C133.836 21.3179 133.073 21.5066 132.217 21.5066C131.614 21.5066 131.059 21.4012 130.555 21.1903C130.061 20.9795 129.644 20.6632 129.303 20.2415V21.3901H127.344V9.03906H129.402V13.5833C129.753 13.1949 130.165 12.9008 130.637 12.7011C131.12 12.5013 131.647 12.4015 132.217 12.4015ZM131.987 19.7255C132.744 19.7255 133.364 19.4703 133.847 18.9598C134.341 18.4494 134.588 17.778 134.588 16.9457C134.588 16.1134 134.341 15.4421 133.847 14.9316C133.364 14.4211 132.744 14.1659 131.987 14.1659C131.493 14.1659 131.048 14.2824 130.653 14.5155C130.258 14.7374 129.945 15.0592 129.715 15.4809C129.484 15.9026 129.369 16.3909 129.369 16.9457C129.369 17.5006 129.484 17.9888 129.715 18.4105C129.945 18.8322 130.258 19.1596 130.653 19.3926C131.048 19.6145 131.493 19.7255 131.987 19.7255Z" fill="white"/>
<path d="M141.876 12.4015C143.172 12.4015 144.159 12.7177 144.84 13.3503C145.531 13.9717 145.877 14.9149 145.877 16.18V21.3901H143.934V20.3081C143.682 20.6965 143.32 20.9961 142.848 21.207C142.387 21.4067 141.827 21.5066 141.169 21.5066C140.51 21.5066 139.934 21.3956 139.44 21.1737C138.946 20.9406 138.562 20.6244 138.287 20.2249C138.024 19.8143 137.892 19.3538 137.892 18.8433C137.892 18.0443 138.183 17.4062 138.765 16.9291C139.358 16.4408 140.285 16.1967 141.547 16.1967H143.819V16.0635C143.819 15.4421 143.633 14.9649 143.259 14.632C142.897 14.2991 142.354 14.1326 141.629 14.1326C141.136 14.1326 140.647 14.2103 140.164 14.3656C139.692 14.521 139.292 14.7374 138.962 15.0148L138.156 13.5001C138.617 13.145 139.171 12.8731 139.819 12.6844C140.466 12.4958 141.152 12.4015 141.876 12.4015ZM141.597 19.9918C142.112 19.9918 142.568 19.8753 142.963 19.6423C143.369 19.3982 143.654 19.0541 143.819 18.6103V17.5782H141.695C140.51 17.5782 139.917 17.9722 139.917 18.7601C139.917 19.1374 140.065 19.437 140.362 19.6589C140.658 19.8809 141.07 19.9918 141.597 19.9918Z" fill="white"/>
<path d="M2.5 19C3.88071 19 5 17.8807 5 16.5C5 15.1193 3.88071 14 2.5 14C1.11929 14 0 15.1193 0 16.5C0 17.8807 1.11929 19 2.5 19Z" fill="white"/>
</svg>
