<svg width="148" height="24" viewBox="0 0 148 24" fill="none" xmlns="http://www.w3.org/2000/svg">
<g id="logo-path-text">
<path d="M23.2017 9.03906H25.2596V21.3901H23.2017V9.03906Z" fill="white"/>
<path d="M36.472 12.5013V21.3901H34.5129V20.2582C34.1836 20.6577 33.7721 20.9684 33.2782 21.1903C32.7843 21.4012 32.252 21.5066 31.6812 21.5066C30.5069 21.5066 29.5794 21.1792 28.899 20.5245C28.2294 19.8587 27.8947 18.8766 27.8947 17.5782V12.5013H29.9526V17.2953C29.9526 18.0943 30.1282 18.6935 30.4794 19.093C30.8416 19.4814 31.352 19.6756 32.0105 19.6756C32.7459 19.6756 33.3275 19.4481 33.7556 18.9931C34.1946 18.527 34.4141 17.8612 34.4141 16.9956V12.5013H36.472Z" fill="white"/>
<path d="M42.7554 17.5782L41.2243 19.043V21.3901H39.1665V9.03906H41.2243V16.4963L45.4883 12.5013H47.9578L44.2865 16.2299L48.3035 21.3901H45.8011L42.7554 17.5782Z" fill="white"/>
<path d="M52.8305 12.4015C54.1256 12.4015 55.1134 12.7177 55.7939 13.3503C56.4853 13.9717 56.8311 14.9149 56.8311 16.18V21.3901H54.8884V20.3081C54.636 20.6965 54.2738 20.9961 53.8018 21.207C53.3409 21.4067 52.7811 21.5066 52.1226 21.5066C51.4641 21.5066 50.8879 21.3956 50.394 21.1737C49.9001 20.9406 49.5159 20.6244 49.2415 20.2249C48.9781 19.8143 48.8464 19.3538 48.8464 18.8433C48.8464 18.0443 49.1373 17.4062 49.719 16.9291C50.3116 16.4408 51.2391 16.1967 52.5012 16.1967H54.7732V16.0635C54.7732 15.4421 54.5866 14.9649 54.2134 14.632C53.8512 14.2991 53.3079 14.1326 52.5836 14.1326C52.0897 14.1326 51.6013 14.2103 51.1183 14.3656C50.6464 14.521 50.2458 14.7374 49.9165 15.0148L49.1098 13.5001C49.5708 13.145 50.1251 12.8731 50.7726 12.6844C51.4202 12.4958 52.1061 12.4015 52.8305 12.4015ZM52.5506 19.9918C53.0665 19.9918 53.522 19.8753 53.9171 19.6423C54.3232 19.3982 54.6085 19.0541 54.7732 18.6103V17.5782H52.6494C51.4641 17.5782 50.8714 17.9722 50.8714 18.7601C50.8714 19.1374 51.0196 19.437 51.3159 19.6589C51.6122 19.8809 52.0238 19.9918 52.5506 19.9918Z" fill="white"/>
<path d="M62.1885 21.5066C61.4751 21.5066 60.7782 21.4123 60.0977 21.2236C59.4172 21.035 58.874 20.7964 58.4679 20.5079L59.2581 18.9265C59.6532 19.1929 60.1252 19.4093 60.6739 19.5757C61.2337 19.7311 61.7825 19.8087 62.3203 19.8087C63.5495 19.8087 64.1641 19.4814 64.1641 18.8267C64.1641 18.5159 64.005 18.2995 63.6867 18.1775C63.3794 18.0554 62.88 17.9389 62.1885 17.8279C61.4642 17.717 60.8715 17.5893 60.4105 17.4451C59.9605 17.3008 59.5654 17.0511 59.2252 16.696C58.8959 16.3298 58.7313 15.8249 58.7313 15.1813C58.7313 14.3379 59.077 13.6665 59.7685 13.1672C60.4709 12.6567 61.4148 12.4015 62.6001 12.4015C63.2038 12.4015 63.8074 12.4736 64.4111 12.6179C65.0147 12.751 65.5086 12.9341 65.8928 13.1672L65.1025 14.7485C64.3562 14.3046 63.5166 14.0827 62.5837 14.0827C61.98 14.0827 61.519 14.177 61.2008 14.3656C60.8934 14.5432 60.7398 14.7818 60.7398 15.0814C60.7398 15.4143 60.9044 15.6529 61.2337 15.7972C61.5739 15.9303 62.0953 16.0579 62.7977 16.18C63.5001 16.291 64.0763 16.4186 64.5263 16.5629C64.9763 16.7071 65.3605 16.9513 65.6787 17.2953C66.008 17.6393 66.1726 18.1275 66.1726 18.7601C66.1726 19.5924 65.8159 20.2582 65.1025 20.7575C64.3891 21.2569 63.4178 21.5066 62.1885 21.5066Z" fill="white"/>
<path d="M74.81 19.7255V21.3901H67.2205V20.0751L72.0442 14.1659H67.3193V12.5013H74.6783V13.8163L69.8381 19.7255H74.81Z" fill="white"/>
<path d="M80.296 17.5782L78.7649 19.043V21.3901H76.707V9.03906H78.7649V16.4963L83.0289 12.5013H85.4984L81.8271 16.2299L85.8441 21.3901H83.3417L80.296 17.5782Z" fill="white"/>
<path d="M90.3711 12.4015C91.6662 12.4015 92.654 12.7177 93.3345 13.3503C94.0259 13.9717 94.3716 14.9149 94.3716 16.18V21.3901H92.429V20.3081C92.1765 20.6965 91.8144 20.9961 91.3424 21.207C90.8814 21.4067 90.3217 21.5066 89.6632 21.5066C89.0046 21.5066 88.4284 21.3956 87.9345 21.1737C87.4406 20.9406 87.0565 20.6244 86.7821 20.2249C86.5187 19.8143 86.387 19.3538 86.387 18.8433C86.387 18.0443 86.6778 17.4062 87.2595 16.9291C87.8522 16.4408 88.7796 16.1967 90.0418 16.1967H92.3137V16.0635C92.3137 15.4421 92.1272 14.9649 91.754 14.632C91.3918 14.2991 90.8485 14.1326 90.1241 14.1326C89.6302 14.1326 89.1418 14.2103 88.6589 14.3656C88.187 14.521 87.7864 14.7374 87.4571 15.0148L86.6504 13.5001C87.1114 13.145 87.6656 12.8731 88.3132 12.6844C88.9607 12.4958 89.6467 12.4015 90.3711 12.4015ZM90.0912 19.9918C90.607 19.9918 91.0625 19.8753 91.4577 19.6423C91.8637 19.3982 92.1491 19.0541 92.3137 18.6103V17.5782H90.19C89.0046 17.5782 88.412 17.9722 88.412 18.7601C88.412 19.1374 88.5601 19.437 88.8565 19.6589C89.1528 19.8809 89.5644 19.9918 90.0912 19.9918Z" fill="white"/>
<path d="M97.0127 9.03906H99.0706V21.3901H97.0127V9.03906Z" fill="white"/>
<path d="M110.036 16.9956C110.036 17.1399 110.025 17.3452 110.003 17.6115H103.105C103.226 18.2663 103.539 18.7878 104.043 19.1762C104.559 19.5535 105.196 19.7422 105.953 19.7422C106.919 19.7422 107.715 19.4203 108.34 18.7767L109.443 20.0584C109.048 20.5356 108.549 20.8963 107.945 21.1404C107.342 21.3845 106.661 21.5066 105.904 21.5066C104.938 21.5066 104.087 21.3124 103.352 20.924C102.617 20.5356 102.046 19.9974 101.64 19.3094C101.245 18.6103 101.047 17.8224 101.047 16.9457C101.047 16.0801 101.239 15.3033 101.623 14.6153C102.019 13.9162 102.562 13.3725 103.253 12.9841C103.945 12.5957 104.724 12.4015 105.591 12.4015C106.447 12.4015 107.21 12.5957 107.879 12.9841C108.56 13.3614 109.087 13.8996 109.46 14.5987C109.844 15.2867 110.036 16.0857 110.036 16.9956ZM105.591 14.066C104.933 14.066 104.373 14.2658 103.912 14.6653C103.462 15.0537 103.187 15.5752 103.089 16.2299H108.077C107.989 15.5863 107.72 15.0648 107.27 14.6653C106.82 14.2658 106.261 14.066 105.591 14.066Z" fill="white"/>
<path d="M123.109 12.4015C124.218 12.4015 125.096 12.7288 125.743 13.3836C126.391 14.0272 126.714 14.9982 126.714 16.2965V21.3901H124.657V16.5629C124.657 15.7861 124.486 15.2035 124.146 14.8151C123.806 14.4156 123.318 14.2158 122.681 14.2158C121.99 14.2158 121.435 14.4489 121.018 14.9149C120.601 15.3699 120.393 16.0247 120.393 16.8791V21.3901H118.335V16.5629C118.335 15.7861 118.165 15.2035 117.824 14.8151C117.484 14.4156 116.996 14.2158 116.359 14.2158C115.657 14.2158 115.097 14.4433 114.68 14.8983C114.274 15.3533 114.071 16.0136 114.071 16.8791V21.3901H112.013V12.5013H113.972V13.6332C114.301 13.2337 114.713 12.9286 115.207 12.7177C115.701 12.5069 116.249 12.4015 116.853 12.4015C117.512 12.4015 118.093 12.5291 118.598 12.7843C119.114 13.0285 119.52 13.3947 119.816 13.8829C120.179 13.4168 120.645 13.0562 121.216 12.801C121.786 12.5346 122.418 12.4015 123.109 12.4015Z" fill="white"/>
<path d="M134.217 12.4015C135.073 12.4015 135.836 12.5901 136.506 12.9674C137.186 13.3447 137.718 13.8774 138.103 14.5654C138.487 15.2534 138.679 16.0468 138.679 16.9457C138.679 17.8446 138.487 18.6436 138.103 19.3427C137.718 20.0307 137.186 20.5633 136.506 20.9406C135.836 21.3179 135.073 21.5066 134.217 21.5066C133.614 21.5066 133.059 21.4012 132.555 21.1903C132.061 20.9795 131.644 20.6632 131.303 20.2415V21.3901H129.344V9.03906H131.402V13.5833C131.753 13.1949 132.165 12.9008 132.637 12.7011C133.12 12.5013 133.647 12.4015 134.217 12.4015ZM133.987 19.7255C134.744 19.7255 135.364 19.4703 135.847 18.9598C136.341 18.4494 136.588 17.778 136.588 16.9457C136.588 16.1134 136.341 15.4421 135.847 14.9316C135.364 14.4211 134.744 14.1659 133.987 14.1659C133.493 14.1659 133.048 14.2824 132.653 14.5155C132.258 14.7374 131.945 15.0592 131.715 15.4809C131.484 15.9026 131.369 16.3909 131.369 16.9457C131.369 17.5006 131.484 17.9888 131.715 18.4105C131.945 18.8322 132.258 19.1596 132.653 19.3926C133.048 19.6145 133.493 19.7255 133.987 19.7255Z" fill="white"/>
<path d="M143.876 12.4015C145.172 12.4015 146.159 12.7177 146.84 13.3503C147.531 13.9717 147.877 14.9149 147.877 16.18V21.3901H145.934V20.3081C145.682 20.6965 145.32 20.9961 144.848 21.207C144.387 21.4067 143.827 21.5066 143.169 21.5066C142.51 21.5066 141.934 21.3956 141.44 21.1737C140.946 20.9406 140.562 20.6244 140.287 20.2249C140.024 19.8143 139.892 19.3538 139.892 18.8433C139.892 18.0443 140.183 17.4062 140.765 16.9291C141.358 16.4408 142.285 16.1967 143.547 16.1967H145.819V16.0635C145.819 15.4421 145.633 14.9649 145.259 14.632C144.897 14.2991 144.354 14.1326 143.629 14.1326C143.136 14.1326 142.647 14.2103 142.164 14.3656C141.692 14.521 141.292 14.7374 140.962 15.0148L140.156 13.5001C140.617 13.145 141.171 12.8731 141.819 12.6844C142.466 12.4958 143.152 12.4015 143.876 12.4015ZM143.597 19.9918C144.112 19.9918 144.568 19.8753 144.963 19.6423C145.369 19.3982 145.654 19.0541 145.819 18.6103V17.5782H143.695C142.51 17.5782 141.917 17.9722 141.917 18.7601C141.917 19.1374 142.065 19.437 142.362 19.6589C142.658 19.8809 143.07 19.9918 143.597 19.9918Z" fill="white"/>
</g>
<path d="M23.9513 0H27.387L10.5898 24H7.15405L23.9513 0Z" fill="#FF00E6" id="logo-path-slash" />
<path d="M3.21228 19.7037C4.65036 19.7037 5.81616 18.5586 5.81616 17.1459C5.81616 15.7333 4.65036 14.5881 3.21228 14.5881C1.7742 14.5881 0.608398 15.7333 0.608398 17.1459C0.608398 18.5586 1.7742 19.7037 3.21228 19.7037Z" fill="#FF00E6" id="logo-path-circle" />
</svg>
