<svg width="394" height="66" viewBox="0 0 394 66" fill="none" xmlns="http://www.w3.org/2000/svg">
<path d="M51.854 26.7621H57.4969V60.3429H51.854V26.7621Z" fill="white"/>
<path d="M88.2419 36.1756V60.3429H82.8699V57.2654C81.9671 58.3516 80.8385 59.1964 79.4842 59.7998C78.1299 60.373 76.6703 60.6597 75.1054 60.6597C71.8852 60.6597 69.3421 59.7696 67.4762 57.9895C65.6404 56.1792 64.7225 53.509 64.7225 49.979V36.1756H70.3654V49.2096C70.3654 51.382 70.8469 53.0112 71.8099 54.0974C72.8031 55.1534 74.2025 55.6814 76.0082 55.6814C78.0246 55.6814 79.6196 55.0629 80.7933 53.8258C81.9972 52.5586 82.5991 50.7484 82.5991 48.395V36.1756H88.2419Z" fill="white"/>
<path d="M105.471 49.979L101.273 53.9616V60.3429H95.6302V26.7621H101.273V47.0373L112.965 36.1756H119.736L109.67 46.3132L120.684 60.3429H113.823L105.471 49.979Z" fill="white"/>
<path d="M133.098 35.904C136.649 35.904 139.357 36.7639 141.223 38.4837C143.119 40.1733 144.067 42.7378 144.067 46.1774V60.3429H138.74V57.4012C138.048 58.4572 137.055 59.2718 135.761 59.845C134.497 60.3881 132.962 60.6597 131.156 60.6597C129.351 60.6597 127.771 60.358 126.416 59.7545C125.062 59.1209 124.009 58.261 123.256 57.1749C122.534 56.0585 122.173 54.8064 122.173 53.4185C122.173 51.2462 122.971 49.5113 124.566 48.214C126.191 46.8864 128.734 46.2226 132.195 46.2226H138.424V45.8606C138.424 44.171 137.913 42.8736 136.89 41.9685C135.896 41.0633 134.407 40.6108 132.42 40.6108C131.066 40.6108 129.727 40.822 128.403 41.2444C127.109 41.6668 126.01 42.2551 125.107 43.0094L122.895 38.891C124.159 37.9255 125.679 37.1863 127.455 36.6734C129.23 36.1605 131.111 35.904 133.098 35.904ZM132.33 56.5413C133.745 56.5413 134.994 56.2245 136.077 55.5909C137.191 54.9271 137.973 53.9918 138.424 52.7849V49.979H132.601C129.351 49.979 127.726 51.0501 127.726 53.1922C127.726 54.2181 128.132 55.0327 128.944 55.6361C129.757 56.2396 130.886 56.5413 132.33 56.5413Z" fill="white"/>
<path d="M158.758 60.6597C156.802 60.6597 154.891 60.4032 153.025 59.8903C151.159 59.3774 149.669 58.7287 148.555 57.9442L150.722 53.6448C151.806 54.3689 153.1 54.9573 154.605 55.4098C156.139 55.8322 157.644 56.0434 159.119 56.0434C162.49 56.0434 164.175 55.1534 164.175 53.3733C164.175 52.5285 163.738 51.9401 162.866 51.6082C162.023 51.2764 160.654 50.9596 158.758 50.6578C156.771 50.3561 155.146 50.0092 153.882 49.6169C152.648 49.2247 151.565 48.5458 150.632 47.5804C149.729 46.5847 149.278 45.2119 149.278 43.462C149.278 41.1689 150.226 39.3436 152.122 37.9858C154.048 36.598 156.636 35.904 159.886 35.904C161.542 35.904 163.197 36.1001 164.852 36.4924C166.507 36.8544 167.862 37.3522 168.915 37.9858L166.748 42.2853C164.702 41.0784 162.399 40.475 159.841 40.475C158.186 40.475 156.922 40.7314 156.049 41.2444C155.207 41.7271 154.785 42.3758 154.785 43.1904C154.785 44.0956 155.237 44.7442 156.139 45.1365C157.072 45.4985 158.502 45.8455 160.428 46.1774C162.354 46.4791 163.934 46.8261 165.168 47.2183C166.402 47.6105 167.455 48.2743 168.328 49.2096C169.231 50.1449 169.682 51.4725 169.682 53.1922C169.682 55.4551 168.704 57.2654 166.748 58.6231C164.792 59.9808 162.128 60.6597 158.758 60.6597Z" fill="white"/>
<path d="M193.366 55.8172V60.3429H172.556V56.7676L185.782 40.7013H172.826V36.1756H193.005V39.7509L179.733 55.8172H193.366Z" fill="white"/>
<path d="M208.409 49.979L204.211 53.9616V60.3429H198.568V26.7621H204.211V47.0373L215.903 36.1756H222.674L212.607 46.3132L223.622 60.3429H216.761L208.409 49.979Z" fill="white"/>
<path d="M236.035 35.904C239.587 35.904 242.295 36.7639 244.161 38.4837C246.057 40.1733 247.005 42.7378 247.005 46.1774V60.3429H241.678V57.4012C240.986 58.4572 239.993 59.2718 238.699 59.845C237.435 60.3881 235.9 60.6597 234.094 60.6597C232.289 60.6597 230.709 60.358 229.354 59.7545C228 59.1209 226.947 58.261 226.194 57.1749C225.472 56.0585 225.111 54.8064 225.111 53.4185C225.111 51.2462 225.908 49.5113 227.503 48.214C229.129 46.8864 231.672 46.2226 235.133 46.2226H241.362V45.8606C241.362 44.171 240.851 42.8736 239.827 41.9685C238.834 41.0633 237.345 40.6108 235.358 40.6108C234.004 40.6108 232.665 40.822 231.341 41.2444C230.047 41.6668 228.948 42.2551 228.045 43.0094L225.833 38.891C227.097 37.9255 228.617 37.1863 230.393 36.6734C232.168 36.1605 234.049 35.904 236.035 35.904ZM235.268 56.5413C236.683 56.5413 237.931 56.2245 239.015 55.5909C240.128 54.9271 240.911 53.9918 241.362 52.7849V49.979H235.539C232.289 49.979 230.663 51.0501 230.663 53.1922C230.663 54.2181 231.07 55.0327 231.882 55.6361C232.695 56.2396 233.823 56.5413 235.268 56.5413Z" fill="white"/>
<path d="M254.247 26.7621H259.89V60.3429H254.247V26.7621Z" fill="white"/>
<path d="M289.958 48.395C289.958 48.7872 289.928 49.3454 289.868 50.0695H270.953C271.284 51.8496 272.141 53.2677 273.526 54.3237C274.94 55.3495 276.686 55.8624 278.762 55.8624C281.411 55.8624 283.593 54.9874 285.308 53.2375L288.333 56.7223C287.249 58.0197 285.88 59.0002 284.225 59.664C282.569 60.3278 280.704 60.6597 278.627 60.6597C275.979 60.6597 273.646 60.1317 271.63 59.0757C269.613 58.0197 268.049 56.5564 266.935 54.6857C265.852 52.7849 265.31 50.6428 265.31 48.2592C265.31 45.9058 265.837 43.7938 266.89 41.9232C267.973 40.0224 269.463 38.544 271.359 37.488C273.255 36.432 275.392 35.904 277.769 35.904C280.117 35.904 282.208 36.432 284.044 37.488C285.91 38.5138 287.355 39.9772 288.378 41.878C289.431 43.7486 289.958 45.9209 289.958 48.395ZM277.769 40.4297C275.964 40.4297 274.429 40.9728 273.165 42.059C271.931 43.115 271.178 44.533 270.908 46.3132H284.586C284.345 44.5632 283.608 43.1452 282.374 42.059C281.14 40.9728 279.605 40.4297 277.769 40.4297Z" fill="white"/>
<path d="M325.804 35.904C328.844 35.904 331.252 36.7941 333.027 38.5742C334.803 40.3241 335.691 42.9641 335.691 46.4942V60.3429H330.048V47.2183C330.048 45.1063 329.581 43.5223 328.648 42.4663C327.715 41.3801 326.376 40.837 324.631 40.837C322.735 40.837 321.215 41.4706 320.071 42.7378C318.928 43.9749 318.356 45.755 318.356 48.0782V60.3429H312.713V47.2183C312.713 45.1063 312.246 43.5223 311.314 42.4663C310.381 41.3801 309.041 40.837 307.296 40.837C305.37 40.837 303.835 41.4556 302.691 42.6926C301.578 43.9296 301.411 45.7248 301.411 48.0782V60.3429H295.768V36.1756H301.14V39.253C302.043 38.1669 302.782 37.3372 304.136 36.7639C305.49 36.1906 306.995 35.904 308.65 35.904C310.456 35.904 312.051 36.251 313.435 36.9449C314.85 37.6087 315.963 38.6044 316.776 39.9319C317.769 38.6647 319.048 37.6841 320.613 36.9902C322.178 36.2661 323.908 35.904 325.804 35.904Z" fill="white"/>
<path d="M356.264 35.904C358.611 35.904 360.703 36.4169 362.539 37.4428C364.404 38.4686 365.864 39.9168 366.917 41.7874C367.971 43.6581 368.497 45.8153 368.497 48.2592C368.497 50.7031 367.971 52.8754 366.917 54.7762C365.864 56.6469 364.404 58.0951 362.539 59.1209C360.703 60.1468 358.611 60.6597 356.264 60.6597C354.608 60.6597 353.089 60.373 351.704 59.7998C350.35 59.2265 349.206 58.3666 348.273 57.2201V60.3429H342.901V26.7621H348.544V39.1173C349.507 38.0613 350.636 37.2617 351.93 36.7186C353.254 36.1756 354.699 35.904 356.264 35.904ZM355.632 55.8172C357.708 55.8172 359.409 55.1232 360.733 53.7353C362.087 52.3474 362.764 50.5221 362.764 48.2592C362.764 45.9964 362.087 44.171 360.733 42.7831C359.409 41.3952 357.708 40.7013 355.632 40.7013C354.277 40.7013 353.059 41.0181 351.975 41.6517C350.892 42.2551 350.034 43.1301 349.402 44.2766C348.77 45.4231 348.454 46.7506 348.454 48.2592C348.454 49.7678 348.77 51.0953 349.402 52.2418C350.034 53.3884 350.892 54.2784 351.975 54.912C353.059 55.5154 354.277 55.8172 355.632 55.8172Z" fill="white"/>
<path d="M382.749 35.904C386.301 35.904 389.009 36.7639 390.875 38.4837C392.771 40.1733 393.719 42.7378 393.719 46.1774V60.3429H388.392V57.4012C387.7 58.4572 386.707 59.2718 385.413 59.845C384.149 60.3881 382.614 60.6597 380.808 60.6597C379.003 60.6597 377.423 60.358 376.068 59.7545C374.714 59.1209 373.661 58.261 372.908 57.1749C372.186 56.0585 371.825 54.8064 371.825 53.4185C371.825 51.2462 372.622 49.5113 374.217 48.214C375.843 46.8864 378.386 46.2226 381.847 46.2226H388.076V45.8606C388.076 44.171 387.565 42.8736 386.541 41.9685C385.548 41.0633 384.059 40.6108 382.072 40.6108C380.718 40.6108 379.379 40.822 378.055 41.2444C376.761 41.6668 375.662 42.2551 374.759 43.0094L372.547 38.891C373.811 37.9255 375.331 37.1863 377.107 36.6734C378.882 36.1605 380.763 35.904 382.749 35.904ZM381.982 56.5413C383.397 56.5413 384.645 56.2245 385.729 55.5909C386.842 54.9271 387.625 53.9918 388.076 52.7849V49.979H382.253C379.003 49.979 377.377 51.0501 377.377 53.1922C377.377 54.2181 377.784 55.0327 378.596 55.6361C379.409 56.2396 380.538 56.5413 381.982 56.5413Z" fill="white"/>
<path d="M59.5439 0H67.6922L21.6165 66H13.4683L59.5439 0Z" fill="white"/>
<path d="M5.98484 52C9.29017 52 11.9697 49.3137 11.9697 46C11.9697 42.6863 9.29017 40 5.98484 40C2.6795 40 0 42.6863 0 46C0 49.3137 2.6795 52 5.98484 52Z" fill="white"/>
</svg>
