<svg width="158" height="27" viewBox="0 0 158 27" fill="none" xmlns="http://www.w3.org/2000/svg">
<g id="logo-path-text">
  <path d="M20.3784 10.7242H22.6454V24.1809H20.3784V10.7242Z" fill="white"/>
  <path d="M34.9969 14.4965V24.1809H32.8388V22.9477C32.4761 23.383 32.0227 23.7215 31.4786 23.9633C30.9345 24.193 30.3481 24.3079 29.7194 24.3079C28.4258 24.3079 27.4041 23.9512 26.6545 23.2379C25.917 22.5124 25.5482 21.4424 25.5482 20.0279V14.4965H27.8152V19.7195C27.8152 20.5901 28.0086 21.2429 28.3955 21.6782C28.7945 22.1014 29.3567 22.313 30.0821 22.313C30.8922 22.313 31.533 22.0651 32.0045 21.5694C32.4881 21.0616 32.73 20.3362 32.73 19.3931V14.4965H34.9969Z" fill="white"/>
  <path d="M41.9187 20.0279L40.232 21.6238V24.1809H37.9651V10.7242H40.232V18.849L44.9292 14.4965H47.6495L43.6053 18.5589L48.0304 24.1809H45.2738L41.9187 20.0279Z" fill="white"/>
  <path d="M53.0173 14.3877C54.4439 14.3877 55.5321 14.7322 56.2817 15.4214C57.0434 16.0985 57.4242 17.1261 57.4242 18.5045V24.1809H55.2842V23.0021C55.0062 23.4253 54.6072 23.7517 54.0873 23.9814C53.5795 24.1991 52.9629 24.3079 52.2374 24.3079C51.512 24.3079 50.8773 24.187 50.3332 23.9452C49.7891 23.6913 49.366 23.3467 49.0637 22.9114C48.7735 22.4641 48.6284 21.9623 48.6284 21.4062C48.6284 20.5357 48.9488 19.8405 49.5896 19.3206C50.2425 18.7886 51.2642 18.5226 52.6546 18.5226H55.1573V18.3775C55.1573 17.7004 54.9517 17.1806 54.5407 16.8178C54.1417 16.4551 53.5432 16.2738 52.7452 16.2738C52.2012 16.2738 51.6631 16.3584 51.1312 16.5277C50.6113 16.6969 50.17 16.9327 49.8073 17.235L48.9186 15.5846C49.4264 15.1977 50.037 14.9015 50.7503 14.696C51.4637 14.4904 52.2193 14.3877 53.0173 14.3877ZM52.709 22.6575C53.2772 22.6575 53.779 22.5306 54.2142 22.2767C54.6616 22.0107 54.9759 21.6359 55.1573 21.1523V20.0279H52.8178C51.512 20.0279 50.8591 20.4571 50.8591 21.3155C50.8591 21.7266 51.0223 22.053 51.3488 22.2948C51.6752 22.5366 52.1286 22.6575 52.709 22.6575Z" fill="white"/>
  <path d="M63.326 24.3079C62.5401 24.3079 61.7724 24.2051 61.0228 23.9996C60.2732 23.794 59.6747 23.5341 59.2273 23.2197L60.0978 21.4968C60.5331 21.787 61.053 22.0228 61.6575 22.2041C62.2741 22.3734 62.8787 22.458 63.4711 22.458C64.8252 22.458 65.5023 22.1014 65.5023 21.388C65.5023 21.0495 65.327 20.8137 64.9763 20.6807C64.6378 20.5477 64.0877 20.4208 63.326 20.2999C62.528 20.179 61.8751 20.0399 61.3673 19.8828C60.8716 19.7256 60.4364 19.4536 60.0616 19.0667C59.6989 18.6677 59.5175 18.1176 59.5175 17.4163C59.5175 16.4974 59.8984 15.766 60.6601 15.2219C61.4338 14.6657 62.4736 14.3877 63.7794 14.3877C64.4444 14.3877 65.1093 14.4662 65.7743 14.6234C66.4393 14.7685 66.9834 14.968 67.4065 15.2219L66.536 16.9448C65.7139 16.4612 64.7889 16.2194 63.7613 16.2194C63.0963 16.2194 62.5885 16.3221 62.2379 16.5277C61.8993 16.7211 61.7301 16.9811 61.7301 17.3075C61.7301 17.6702 61.9114 17.9302 62.2741 18.0873C62.6489 18.2324 63.2232 18.3715 63.997 18.5045C64.7708 18.6254 65.4056 18.7644 65.9013 18.9216C66.397 19.0788 66.8201 19.3447 67.1708 19.7195C67.5335 20.0944 67.7148 20.6263 67.7148 21.3155C67.7148 22.2223 67.3219 22.9477 66.536 23.4918C65.7501 24.0358 64.6801 24.3079 63.326 24.3079Z" fill="white"/>
  <path d="M77.2297 22.3674V24.1809H68.8691V22.7482L74.1829 16.31H68.978V14.4965H77.0846V15.9292L71.7527 22.3674H77.2297Z" fill="white"/>
  <path d="M83.273 20.0279L81.5864 21.6238V24.1809H79.3194V10.7242H81.5864V18.849L86.2835 14.4965H89.0039L84.9596 18.5589L89.3847 24.1809H86.6281L83.273 20.0279Z" fill="white"/>
  <path d="M94.3716 14.3877C95.7983 14.3877 96.8864 14.7322 97.636 15.4214C98.3977 16.0985 98.7786 17.1261 98.7786 18.5045V24.1809H96.6386V23.0021C96.3605 23.4253 95.9615 23.7517 95.4416 23.9814C94.9338 24.1991 94.3172 24.3079 93.5918 24.3079C92.8663 24.3079 92.2316 24.187 91.6875 23.9452C91.1435 23.6913 90.7203 23.3467 90.418 22.9114C90.1279 22.4641 89.9828 21.9623 89.9828 21.4062C89.9828 20.5357 90.3032 19.8405 90.944 19.3206C91.5968 18.7886 92.6185 18.5226 94.0089 18.5226H96.5116V18.3775C96.5116 17.7004 96.3061 17.1806 95.895 16.8178C95.496 16.4551 94.8975 16.2738 94.0996 16.2738C93.5555 16.2738 93.0175 16.3584 92.4855 16.5277C91.9656 16.6969 91.5243 16.9327 91.1616 17.235L90.2729 15.5846C90.7807 15.1977 91.3913 14.9015 92.1046 14.696C92.818 14.4904 93.5736 14.3877 94.3716 14.3877ZM94.0633 22.6575C94.6316 22.6575 95.1333 22.5306 95.5686 22.2767C96.0159 22.0107 96.3303 21.6359 96.5116 21.1523V20.0279H94.1721C92.8663 20.0279 92.2135 20.4571 92.2135 21.3155C92.2135 21.7266 92.3767 22.053 92.7031 22.2948C93.0296 22.5366 93.483 22.6575 94.0633 22.6575Z" fill="white"/>
  <path d="M101.688 10.7242H103.955V24.1809H101.688V10.7242Z" fill="white"/>
  <path d="M116.034 19.3931C116.034 19.5503 116.022 19.774 115.998 20.0641H108.399C108.532 20.7775 108.877 21.3457 109.433  21.7689C110.001 22.18 110.703 22.3855 111.537 22.3855C112.601 22.3855 113.477 22.0349 114.166 21.3336L115.382 22.7301C114.946 23.25 114.396 23.6429 113.731 23.9089C113.066 24.1749 112.317 24.3079 111.482 24.3079C110.418 24.3079 109.481 24.0963 108.671 23.6731C107.861 23.25 107.233 22.6636 106.785 21.914C106.35 21.1523 106.132 20.2938 106.132 19.3387C106.132 18.3956 106.344 17.5493 106.767 16.7997C107.202 16.038 107.801 15.4456 108.563 15.0224C109.324 14.5992 110.183 14.3877 111.138 14.3877C112.081 14.3877 112.921 14.5992 113.659 15.0224C114.408 15.4335 114.989 16.0199 115.4 16.7816C115.823 17.5312 116.034 18.4017 116.034 19.3931ZM111.138 16.2012C110.412 16.2012 109.796 16.4189 109.288 16.8541C108.792 17.2773 108.49 17.8455 108.381 18.5589H113.876C113.78 17.8576 113.483 17.2894 112.988 16.8541C112.492 16.4189 111.875 16.2012 111.138 16.2012Z" fill="white"/>
  <path d="M130.435 14.3877C131.657 14.3877 132.624 14.7443 133.337 15.4577C134.05 16.1589 134.407 17.2168 134.407 18.6314V24.1809H132.14V18.9216C132.14 18.0752 131.953 17.4405 131.578 17.0173C131.203 16.5821 130.665 16.3644 129.964 16.3644C129.202 16.3644 128.592 16.6183 128.132 17.1261C127.673 17.6219 127.443 18.3352 127.443 19.2662V24.1809H125.176V18.9216C125.176 18.0752 124.989 17.4405 124.614 17.0173C124.239 16.5821 123.701 16.3644 123 16.3644C122.226 16.3644 121.609 16.6123 121.15 17.108C120.703 17.6037 120.636 18.3231 120.636 19.2662V24.1809H118.369V14.4965H120.527V15.7297C120.89 15.2944 121.186 14.9619 121.73 14.7322C122.274 14.5025 122.879 14.3877 123.544 14.3877C124.269 14.3877 124.91 14.5267 125.466 14.8048C126.034 15.0708 126.482 15.4697 126.808 16.0017C127.207 15.4939 127.721 15.101 128.35 14.8229C128.979 14.5327 129.674 14.3877 130.435 14.3877Z" fill="white"/>
  <path d="M142.672 14.3877C143.615 14.3877 144.456 14.5932 145.193 15.0043C145.943 15.4153 146.529 15.9957 146.952 16.7453C147.375 17.4949 147.587 18.3594 147.587 19.3387C147.587 20.318 147.375 21.1885 146.952 21.9502C146.529 22.6998 145.943 23.2802 145.193 23.6913C144.456 24.1023 143.615 24.3079 142.672 24.3079C142.007 24.3079 141.397 24.193 140.84 23.9633C140.296 23.7336 139.837 23.389 139.462 22.9296V24.1809H137.304V10.7242H139.571V15.6753C139.958 15.2521 140.411 14.9317 140.931 14.7141C141.463 14.4965 142.043 14.3877 142.672 14.3877ZM142.418 22.3674C143.253 22.3674 143.936 22.0893 144.468 21.5331C145.012 20.977 145.284 20.2455 145.284 19.3387C145.284 18.4319 145.012 17.7004 144.468 17.1443C143.936 16.5881 143.253 16.31 142.418 16.31C141.874 16.31 141.385 16.437 140.949 16.6909C140.514 16.9327 140.169 17.2833 139.916 17.7428C139.662 18.2022 139.535 18.7342 139.535 19.3387C139.535 19.9432 139.662 20.4752 139.916 20.9346C140.169 21.3941 140.514 21.7507 140.949 22.0046C141.385 22.2465 141.874 22.3674 142.418 22.3674Z" fill="white"/>
  <path d="M153.313 14.3877C154.739 14.3877 155.827 14.7322 156.577 15.4214C157.339 16.0985 157.72 17.1261 157.72 18.5045V24.1809H155.58V23.0021C155.301 23.4253 154.902 23.7517 154.383 23.9814C153.875 24.1991 153.258 24.3079 152.533 24.3079C151.807 24.3079 151.173 24.187 150.629 23.9452C150.084 23.6913 149.661 23.3467 149.359 22.9114C149.069 22.4641 148.924 21.9623 148.924 21.4062C148.924 20.5357 149.244 19.8405 149.885 19.3206C150.538 18.7886 151.559 18.5226 152.95 18.5226H155.453V18.3775C155.453 17.7004 155.247 17.1806 154.836 16.8178C154.437 16.4551 153.839 16.2738 153.041 16.2738C152.496 16.2738 151.958 16.3584 151.426 16.5277C150.907 16.6969 150.465 16.9327 150.103 17.235L149.214 15.5846C149.722 15.1977 150.332 14.9015 151.046 14.696C151.759 14.4904 152.515 14.3877 153.313 14.3877ZM153.004 22.6575C153.573 22.6575 154.074 22.5306 154.51 22.2767C154.957 22.0107 155.271 21.6359 155.453 21.1523V20.0279H153.113C151.807 20.0279 151.154 20.4571 151.154 21.3155C151.154 21.7266 151.318 22.053 151.644 22.2948C151.971 22.5366 152.424 22.6575 153.004 22.6575Z" fill="white"/>
</g>
<path d="M24.5559 0H28.3421L9.83162 26.4479H6.04541L24.5559 0Z" fill="#FF00E6" id="logo-path-slash" />
<path d="M2.86946 20.9576C4.45423 20.9576 5.73893 19.6956 5.73893 18.1389C5.73893 16.5822 4.45423 15.3203 2.86946 15.3203C1.2847 15.3203 0 16.5822 0 18.1389C0 19.6956 1.2847 20.9576 2.86946 20.9576Z" fill="#FF00E6" id="logo-path-circle" />
</svg>
